<svg xmlns="http://www.w3.org/2000/svg" width="180" viewBox="0 0 180 180" height="180" version="1.0"><defs><clipPath id="a"><path d="M 5 5.902344 L 173 5.902344 L 173 173 L 5 173 Z M 5 5.902344"/></clipPath></defs><g clip-path="url(#a)"><path fill="#C38EDC" d="M 172.523438 89.238281 C 172.523438 90.601562 172.492188 91.964844 172.425781 93.324219 C 172.359375 94.6875 172.257812 96.046875 172.125 97.40625 C 171.988281 98.761719 171.824219 100.117188 171.621094 101.464844 C 171.421875 102.8125 171.1875 104.15625 170.921875 105.496094 C 170.65625 106.832031 170.355469 108.164062 170.023438 109.488281 C 169.691406 110.808594 169.328125 112.125 168.933594 113.429688 C 168.535156 114.734375 168.109375 116.027344 167.648438 117.3125 C 167.1875 118.597656 166.699219 119.871094 166.175781 121.128906 C 165.652344 122.390625 165.097656 123.636719 164.515625 124.867188 C 163.933594 126.101562 163.320312 127.320312 162.675781 128.523438 C 162.03125 129.726562 161.359375 130.910156 160.65625 132.082031 C 159.953125 133.25 159.226562 134.402344 158.464844 135.539062 C 157.707031 136.671875 156.921875 137.785156 156.109375 138.882812 C 155.296875 139.976562 154.457031 141.050781 153.589844 142.105469 C 152.722656 143.160156 151.832031 144.195312 150.914062 145.203125 C 150 146.214844 149.058594 147.203125 148.09375 148.167969 C 147.125 149.132812 146.136719 150.070312 145.125 150.988281 C 144.113281 151.902344 143.082031 152.792969 142.027344 153.660156 C 140.972656 154.523438 139.894531 155.363281 138.796875 156.175781 C 137.703125 156.988281 136.585938 157.773438 135.449219 158.53125 C 134.316406 159.289062 133.164062 160.019531 131.992188 160.71875 C 130.820312 161.421875 129.632812 162.09375 128.429688 162.734375 C 127.226562 163.378906 126.007812 163.992188 124.773438 164.574219 C 123.539062 165.15625 122.289062 165.710938 121.027344 166.234375 C 119.769531 166.753906 118.496094 167.246094 117.207031 167.703125 C 115.921875 168.164062 114.628906 168.59375 113.320312 168.988281 C 112.015625 169.382812 110.699219 169.746094 109.375 170.078125 C 108.050781 170.410156 106.71875 170.710938 105.378906 170.976562 C 104.042969 171.242188 102.695312 171.472656 101.347656 171.675781 C 99.996094 171.875 98.640625 172.042969 97.28125 172.175781 C 95.921875 172.308594 94.5625 172.410156 93.199219 172.476562 C 91.835938 172.542969 90.472656 172.578125 89.105469 172.578125 C 87.742188 172.578125 86.375 172.542969 85.011719 172.476562 C 83.648438 172.410156 82.289062 172.308594 80.929688 172.175781 C 79.570312 172.042969 78.214844 171.875 76.867188 171.675781 C 75.515625 171.472656 74.171875 171.242188 72.832031 170.976562 C 71.492188 170.710938 70.160156 170.410156 68.835938 170.078125 C 67.511719 169.746094 66.195312 169.382812 64.890625 168.988281 C 63.585938 168.59375 62.289062 168.164062 61.003906 167.703125 C 59.71875 167.246094 58.445312 166.753906 57.183594 166.234375 C 55.921875 165.710938 54.675781 165.15625 53.441406 164.574219 C 52.207031 163.992188 50.988281 163.378906 49.78125 162.734375 C 48.578125 162.09375 47.390625 161.421875 46.21875 160.71875 C 45.050781 160.019531 43.894531 159.289062 42.761719 158.53125 C 41.625 157.773438 40.511719 156.988281 39.414062 156.175781 C 38.316406 155.363281 37.242188 154.523438 36.183594 153.660156 C 35.128906 152.792969 34.097656 151.902344 33.085938 150.988281 C 32.074219 150.070312 31.085938 149.132812 30.121094 148.167969 C 29.15625 147.203125 28.214844 146.214844 27.296875 145.203125 C 26.378906 144.195312 25.488281 143.160156 24.621094 142.105469 C 23.757812 141.050781 22.917969 139.976562 22.101562 138.882812 C 21.289062 137.785156 20.503906 136.671875 19.746094 135.539062 C 18.988281 134.402344 18.257812 133.25 17.554688 132.082031 C 16.851562 130.910156 16.179688 129.726562 15.535156 128.523438 C 14.894531 127.320312 14.28125 126.101562 13.695312 124.867188 C 13.113281 123.636719 12.558594 122.390625 12.035156 121.128906 C 11.515625 119.871094 11.023438 118.597656 10.5625 117.3125 C 10.101562 116.027344 9.675781 114.734375 9.277344 113.429688 C 8.882812 112.125 8.519531 110.808594 8.1875 109.488281 C 7.855469 108.164062 7.554688 106.832031 7.289062 105.496094 C 7.023438 104.15625 6.789062 102.8125 6.589844 101.464844 C 6.390625 100.117188 6.222656 98.761719 6.089844 97.40625 C 5.953125 96.046875 5.855469 94.6875 5.789062 93.324219 C 5.71875 91.964844 5.6875 90.601562 5.6875 89.238281 C 5.6875 87.871094 5.71875 86.511719 5.789062 85.148438 C 5.855469 83.785156 5.953125 82.425781 6.089844 81.066406 C 6.222656 79.710938 6.390625 78.359375 6.589844 77.007812 C 6.789062 75.660156 7.023438 74.316406 7.289062 72.976562 C 7.554688 71.640625 7.855469 70.308594 8.1875 68.988281 C 8.519531 67.664062 8.882812 66.351562 9.277344 65.042969 C 9.675781 63.738281 10.101562 62.445312 10.5625 61.160156 C 11.023438 59.875 11.515625 58.605469 12.035156 57.34375 C 12.558594 56.085938 13.113281 54.835938 13.695312 53.605469 C 14.28125 52.371094 14.894531 51.152344 15.535156 49.949219 C 16.179688 48.746094 16.851562 47.5625 17.554688 46.390625 C 18.257812 45.222656 18.988281 44.070312 19.746094 42.9375 C 20.503906 41.800781 21.289062 40.6875 22.101562 39.589844 C 22.917969 38.496094 23.757812 37.421875 24.621094 36.367188 C 25.488281 35.3125 26.378906 34.28125 27.296875 33.269531 C 28.214844 32.257812 29.15625 31.269531 30.121094 30.308594 C 31.085938 29.34375 32.074219 28.402344 33.085938 27.484375 C 34.097656 26.570312 35.128906 25.679688 36.183594 24.8125 C 37.242188 23.949219 38.316406 23.109375 39.414062 22.296875 C 40.511719 21.484375 41.625 20.699219 42.761719 19.941406 C 43.894531 19.183594 45.050781 18.457031 46.21875 17.753906 C 47.390625 17.054688 48.578125 16.378906 49.78125 15.738281 C 50.988281 15.09375 52.207031 14.480469 53.441406 13.898438 C 54.675781 13.316406 55.921875 12.761719 57.183594 12.242188 C 58.445312 11.71875 59.71875 11.226562 61.003906 10.769531 C 62.289062 10.308594 63.585938 9.882812 64.890625 9.484375 C 66.195312 9.089844 67.511719 8.726562 68.835938 8.394531 C 70.160156 8.0625 71.492188 7.765625 72.832031 7.5 C 74.171875 7.234375 75.515625 7 76.867188 6.800781 C 78.214844 6.597656 79.570312 6.433594 80.929688 6.296875 C 82.289062 6.164062 83.648438 6.066406 85.011719 5.996094 C 86.375 5.929688 87.742188 5.898438 89.105469 5.898438 C 90.472656 5.898438 91.835938 5.929688 93.199219 5.996094 C 94.5625 6.066406 95.921875 6.164062 97.28125 6.296875 C 98.640625 6.433594 99.996094 6.597656 101.347656 6.800781 C 102.695312 7 104.042969 7.234375 105.378906 7.5 C 106.71875 7.765625 108.050781 8.0625 109.375 8.394531 C 110.699219 8.726562 112.015625 9.089844 113.320312 9.484375 C 114.628906 9.882812 115.921875 10.308594 117.207031 10.769531 C 118.496094 11.226562 119.769531 11.71875 121.027344 12.242188 C 122.289062 12.761719 123.539062 13.316406 124.773438 13.898438 C 126.007812 14.480469 127.226562 15.09375 128.429688 15.738281 C 129.632812 16.378906 130.820312 17.054688 131.992188 17.753906 C 133.164062 18.457031 134.316406 19.183594 135.449219 19.941406 C 136.585938 20.699219 137.703125 21.484375 138.796875 22.296875 C 139.894531 23.109375 140.972656 23.949219 142.027344 24.8125 C 143.082031 25.679688 144.113281 26.570312 145.125 27.484375 C 146.136719 28.402344 147.125 29.34375 148.09375 30.308594 C 149.058594 31.269531 150 32.257812 150.914062 33.269531 C 151.832031 34.28125 152.722656 35.3125 153.589844 36.367188 C 154.457031 37.421875 155.296875 38.496094 156.109375 39.589844 C 156.921875 40.6875 157.707031 41.800781 158.464844 42.9375 C 159.226562 44.070312 159.953125 45.222656 160.65625 46.390625 C 161.359375 47.5625 162.03125 48.746094 162.675781 49.949219 C 163.320312 51.152344 163.933594 52.371094 164.515625 53.605469 C 165.097656 54.835938 165.652344 56.085938 166.175781 57.34375 C 166.699219 58.605469 167.1875 59.875 167.648438 61.160156 C 168.109375 62.445312 168.535156 63.738281 168.933594 65.042969 C 169.328125 66.351562 169.691406 67.664062 170.023438 68.988281 C 170.355469 70.308594 170.65625 71.640625 170.921875 72.976562 C 171.1875 74.316406 171.421875 75.660156 171.621094 77.007812 C 171.824219 78.359375 171.988281 79.710938 172.125 81.066406 C 172.257812 82.425781 172.359375 83.785156 172.425781 85.148438 C 172.492188 86.511719 172.523438 87.871094 172.523438 89.238281 Z M 172.523438 89.238281"/></g><path fill="#FFF" d="M 74.324219 82.050781 C 74.167969 80.175781 71.121094 43.519531 70.101562 37.53125 L 70.085938 37.375 C 70.023438 35.496094 70.984375 33.292969 72.449219 31.847656 C 73.507812 30.800781 74.816406 30.15625 76.152344 30.171875 C 78.199219 30.191406 80.605469 31.789062 82.117188 36.816406 C 82.128906 36.867188 82.140625 36.917969 82.148438 36.964844 C 82.148438 36.964844 87.945312 73.066406 87.945312 74.046875 C 87.953125 75.121094 88.40625 76.210938 89.007812 76.875 C 89.132812 77.011719 89.265625 77.128906 89.402344 77.214844 C 89.476562 77.261719 89.546875 77.320312 89.621094 77.304688 C 89.65625 77.300781 89.679688 77.261719 89.710938 77.226562 C 89.804688 77.128906 89.882812 76.992188 89.957031 76.828125 C 90.25 76.195312 90.433594 75.230469 90.492188 73.855469 C 90.492188 73.847656 90.492188 73.835938 90.496094 73.828125 L 93.375 33.023438 L 93.378906 32.988281 C 93.570312 31.039062 94.804688 29.234375 96.375 28.214844 C 97.492188 27.492188 98.777344 27.171875 99.976562 27.390625 C 101.851562 27.734375 103.75 29.421875 104.238281 33.605469 C 104.242188 33.652344 104.246094 33.699219 104.246094 33.746094 C 104.246094 33.746094 104.089844 69.273438 103.847656 74.875 L 103.839844 74.984375 C 103.679688 76.140625 103.988281 77.453125 104.515625 78.355469 C 104.660156 78.605469 104.820312 78.820312 105 78.976562 C 105.078125 79.042969 105.152344 79.109375 105.238281 79.121094 C 105.28125 79.128906 105.3125 79.082031 105.359375 79.046875 C 105.441406 78.976562 105.519531 78.886719 105.601562 78.78125 C 106.011719 78.222656 106.371094 77.292969 106.6875 75.910156 C 106.691406 75.902344 106.691406 75.894531 106.695312 75.882812 C 106.695312 75.882812 114.421875 45.296875 114.417969 45.324219 C 114.992188 42.808594 116.601562 40.8125 118.363281 39.847656 C 119.707031 39.109375 121.148438 38.960938 122.382812 39.476562 C 124.199219 40.234375 125.820312 42.648438 125.507812 47.683594 C 125.503906 47.726562 125.5 47.765625 125.492188 47.808594 C 125.492188 47.808594 122.539062 65.121094 121.855469 69.589844 C 121.851562 69.609375 121.847656 69.628906 121.84375 69.648438 C 121.84375 69.648438 118.703125 85.058594 118.519531 87.457031 C 118.472656 88.054688 118.679688 88.714844 119.039062 89.179688 C 119.199219 89.390625 119.386719 89.578125 119.625 89.621094 C 119.835938 89.660156 120.054688 89.542969 120.300781 89.332031 C 120.605469 89.074219 120.90625 88.683594 121.214844 88.152344 C 123.636719 83.929688 132.742188 73.175781 134.550781 70.421875 C 135.539062 68.921875 137.28125 67.882812 138.902344 67.6875 C 140.15625 67.535156 141.332031 67.867188 142.160156 68.722656 C 143.296875 69.902344 143.886719 72.390625 142.214844 76.703125 C 142.199219 76.738281 142.183594 76.773438 142.164062 76.808594 C 142.164062 76.808594 134.15625 92.488281 130.34375 99.347656 C 129.476562 100.910156 128.78125 102.039062 128.425781 102.515625 C 125.03125 108.25 123.007812 120.160156 119.441406 130.183594 C 116.933594 137.230469 113.636719 143.347656 108.804688 146.105469 C 100.128906 151.058594 81.785156 155.683594 70.710938 142.820312 C 70.695312 142.800781 70.675781 142.777344 70.660156 142.757812 C 70.660156 142.757812 55.761719 122.769531 53.664062 114.96875 C 53.238281 113.925781 48.054688 101.207031 46.933594 97.347656 C 46.933594 97.339844 46.929688 97.332031 46.929688 97.324219 C 46.929688 97.324219 44.417969 87.992188 36.6875 83.054688 C 35.425781 82.375 34.761719 80.828125 35.007812 79.167969 C 35.476562 76.058594 39.480469 71.976562 48.539062 76.960938 C 48.542969 76.960938 48.550781 76.964844 48.554688 76.96875 C 48.554688 76.96875 54.625 80.359375 61.730469 93.554688 C 61.730469 93.554688 62.675781 95.300781 64.300781 96.847656 C 65.324219 97.820312 66.617188 98.730469 68.144531 98.988281 C 68.238281 99.003906 68.332031 99.03125 68.421875 99.070312 C 68.421875 99.070312 68.429688 99.074219 68.441406 99.078125 C 68.621094 99.152344 69.523438 99.347656 70.523438 98.300781 C 72.207031 96.535156 73.867188 92.203125 74.324219 82.050781 Z M 79.863281 37.414062 C 79.292969 35.539062 78.621094 34.246094 77.878906 33.433594 C 77.308594 32.808594 76.71875 32.503906 76.128906 32.5 C 75.378906 32.492188 74.679688 32.917969 74.085938 33.503906 C 73.09375 34.484375 72.394531 35.949219 72.417969 37.230469 C 73.480469 43.683594 76.652344 81.933594 76.652344 81.933594 L 76.65625 82.082031 C 76.265625 90.929688 74.890625 95.6875 73.441406 98.21875 C 72.136719 100.5 70.683594 101.207031 69.621094 101.410156 C 68.675781 101.589844 67.941406 101.382812 67.617188 101.257812 C 65.675781 100.890625 64 99.777344 62.695312 98.535156 C 60.78125 96.714844 59.679688 94.65625 59.679688 94.660156 C 53 82.257812 47.398438 78.988281 47.414062 79 C 44.34375 77.308594 42.007812 76.792969 40.296875 77.007812 C 38.898438 77.179688 37.996094 77.875 37.570312 78.714844 C 37.316406 79.21875 37.230469 79.765625 37.324219 80.238281 C 37.386719 80.570312 37.53125 80.875 37.8125 81.015625 L 37.910156 81.074219 C 46.40625 86.472656 49.179688 96.71875 49.171875 96.699219 C 50.324219 100.671875 55.847656 114.152344 55.847656 114.152344 L 55.898438 114.300781 C 57.8125 121.652344 71.8125 140.410156 72.5 141.328125 C 82.726562 153.164062 99.648438 148.648438 107.648438 144.082031 C 112.074219 141.554688 114.949219 135.859375 117.246094 129.40625 C 120.875 119.203125 122.984375 107.097656 126.445312 101.289062 C 126.5 101.199219 126.5625 101.117188 126.636719 101.046875 C 126.851562 100.839844 127.445312 99.765625 128.304688 98.214844 C 131.972656 91.621094 139.535156 76.835938 140.0625 75.808594 C 140.683594 74.1875 140.957031 72.910156 140.949219 71.921875 C 140.945312 71.195312 140.796875 70.667969 140.484375 70.339844 C 140.15625 70.003906 139.675781 69.9375 139.183594 69.996094 C 138.179688 70.121094 137.109375 70.773438 136.5 71.699219 C 134.699219 74.4375 125.644531 85.113281 123.234375 89.308594 C 121.898438 91.636719 120.367188 92.125 119.203125 91.910156 C 118.429688 91.769531 117.722656 91.292969 117.1875 90.59375 C 116.5 89.695312 116.105469 88.425781 116.195312 87.28125 C 116.378906 84.902344 119.410156 69.929688 119.554688 69.210938 C 120.222656 64.851562 122.984375 48.644531 123.183594 47.480469 C 123.296875 45.585938 123.125 44.160156 122.730469 43.136719 C 122.429688 42.351562 122.011719 41.84375 121.484375 41.625 C 120.867188 41.367188 120.15625 41.519531 119.484375 41.890625 C 118.21875 42.582031 117.101562 44.039062 116.6875 45.84375 C 116.6875 45.851562 116.6875 45.859375 116.683594 45.867188 C 116.683594 45.867188 108.953125 76.453125 108.960938 76.429688 C 108.453125 78.65625 107.75 79.960938 107.070312 80.632812 C 106.363281 81.335938 105.613281 81.527344 104.90625 81.425781 C 104.214844 81.328125 103.515625 80.898438 102.941406 80.171875 C 101.941406 78.914062 101.273438 76.683594 101.523438 74.734375 C 101.753906 69.160156 101.90625 35.605469 101.914062 33.8125 C 101.59375 31.179688 100.746094 29.898438 99.558594 29.679688 C 98.914062 29.5625 98.238281 29.785156 97.640625 30.171875 C 96.636719 30.820312 95.824219 31.960938 95.699219 33.207031 L 92.820312 73.980469 C 92.722656 76.148438 92.300781 77.527344 91.789062 78.328125 C 91.269531 79.148438 90.617188 79.511719 89.96875 79.609375 C 89.269531 79.714844 88.507812 79.492188 87.816406 78.941406 C 86.644531 78.011719 85.625 76.03125 85.617188 74.054688 C 85.613281 73.113281 80.164062 39.289062 79.863281 37.414062 Z M 79.863281 37.414062" fill-rule="evenodd"/></svg>