<svg xmlns="http://www.w3.org/2000/svg" width="180" viewBox="0 0 180 180" height="180" version="1.0"><defs><clipPath id="a"><path d="M 5.582031 5.902344 L 173 5.902344 L 173 173 L 5.582031 173 Z M 5.582031 5.902344"/></clipPath></defs><g clip-path="url(#a)"><path fill="#F083A2" d="M 172.558594 89.238281 C 172.558594 90.601562 172.523438 91.964844 172.457031 93.324219 C 172.390625 94.6875 172.289062 96.046875 172.15625 97.40625 C 172.023438 98.761719 171.855469 100.117188 171.65625 101.464844 C 171.457031 102.8125 171.222656 104.15625 170.957031 105.496094 C 170.691406 106.832031 170.390625 108.164062 170.058594 109.488281 C 169.726562 110.808594 169.363281 112.125 168.964844 113.429688 C 168.570312 114.734375 168.140625 116.027344 167.683594 117.3125 C 167.222656 118.597656 166.730469 119.871094 166.207031 121.128906 C 165.6875 122.390625 165.132812 123.636719 164.550781 124.867188 C 163.964844 126.101562 163.351562 127.320312 162.707031 128.523438 C 162.066406 129.726562 161.390625 130.910156 160.691406 132.082031 C 159.988281 133.25 159.257812 134.402344 158.5 135.539062 C 157.742188 136.671875 156.957031 137.785156 156.140625 138.882812 C 155.328125 139.976562 154.488281 141.050781 153.625 142.105469 C 152.757812 143.160156 151.867188 144.195312 150.949219 145.203125 C 150.03125 146.214844 149.089844 147.203125 148.125 148.167969 C 147.160156 149.132812 146.171875 150.070312 145.160156 150.988281 C 144.148438 151.902344 143.117188 152.792969 142.058594 153.660156 C 141.003906 154.523438 139.929688 155.363281 138.832031 156.175781 C 137.734375 156.988281 136.621094 157.773438 135.484375 158.53125 C 134.351562 159.289062 133.195312 160.019531 132.027344 160.71875 C 130.855469 161.421875 129.667969 162.09375 128.464844 162.734375 C 127.257812 163.378906 126.039062 163.992188 124.804688 164.574219 C 123.570312 165.15625 122.324219 165.710938 121.0625 166.234375 C 119.800781 166.753906 118.527344 167.246094 117.242188 167.703125 C 115.957031 168.164062 114.660156 168.59375 113.355469 168.988281 C 112.046875 169.382812 110.734375 169.746094 109.410156 170.078125 C 108.085938 170.410156 106.753906 170.710938 105.414062 170.976562 C 104.074219 171.242188 102.730469 171.472656 101.378906 171.675781 C 100.03125 171.875 98.675781 172.042969 97.316406 172.175781 C 95.957031 172.308594 94.597656 172.410156 93.234375 172.476562 C 91.871094 172.542969 90.503906 172.578125 89.140625 172.578125 C 87.773438 172.578125 86.410156 172.542969 85.046875 172.476562 C 83.683594 172.410156 82.320312 172.308594 80.964844 172.175781 C 79.605469 172.042969 78.25 171.875 76.898438 171.675781 C 75.550781 171.472656 74.203125 171.242188 72.867188 170.976562 C 71.527344 170.710938 70.195312 170.410156 68.871094 170.078125 C 67.546875 169.746094 66.230469 169.382812 64.925781 168.988281 C 63.617188 168.59375 62.320312 168.164062 61.035156 167.703125 C 59.75 167.246094 58.476562 166.753906 57.214844 166.234375 C 55.957031 165.710938 54.707031 165.15625 53.472656 164.574219 C 52.238281 163.992188 51.019531 163.378906 49.816406 162.734375 C 48.613281 162.09375 47.425781 161.421875 46.253906 160.71875 C 45.082031 160.019531 43.929688 159.289062 42.792969 158.53125 C 41.660156 157.773438 40.542969 156.988281 39.445312 156.175781 C 38.351562 155.363281 37.273438 154.523438 36.21875 153.660156 C 35.164062 152.792969 34.128906 151.902344 33.117188 150.988281 C 32.105469 150.070312 31.117188 149.132812 30.152344 148.167969 C 29.1875 147.203125 28.246094 146.214844 27.332031 145.203125 C 26.414062 144.195312 25.523438 143.160156 24.65625 142.105469 C 23.789062 141.050781 22.949219 139.976562 22.136719 138.882812 C 21.324219 137.785156 20.539062 136.671875 19.777344 135.539062 C 19.019531 134.402344 18.289062 133.25 17.589844 132.082031 C 16.886719 130.910156 16.214844 129.726562 15.570312 128.523438 C 14.925781 127.320312 14.3125 126.101562 13.730469 124.867188 C 13.144531 123.636719 12.59375 122.390625 12.070312 121.128906 C 11.546875 119.871094 11.058594 118.597656 10.597656 117.3125 C 10.136719 116.027344 9.707031 114.734375 9.3125 113.429688 C 8.917969 112.125 8.550781 110.808594 8.21875 109.488281 C 7.890625 108.164062 7.589844 106.832031 7.324219 105.496094 C 7.058594 104.15625 6.824219 102.8125 6.625 101.464844 C 6.421875 100.117188 6.257812 98.761719 6.121094 97.40625 C 5.988281 96.046875 5.886719 94.6875 5.820312 93.324219 C 5.753906 91.964844 5.71875 90.601562 5.71875 89.238281 C 5.71875 87.871094 5.753906 86.511719 5.820312 85.148438 C 5.886719 83.785156 5.988281 82.425781 6.121094 81.066406 C 6.257812 79.710938 6.421875 78.359375 6.625 77.007812 C 6.824219 75.660156 7.058594 74.316406 7.324219 72.976562 C 7.589844 71.640625 7.890625 70.308594 8.21875 68.988281 C 8.550781 67.664062 8.917969 66.351562 9.3125 65.042969 C 9.707031 63.738281 10.136719 62.445312 10.597656 61.160156 C 11.058594 59.875 11.546875 58.605469 12.070312 57.34375 C 12.59375 56.085938 13.144531 54.835938 13.730469 53.605469 C 14.3125 52.371094 14.925781 51.152344 15.570312 49.949219 C 16.214844 48.746094 16.886719 47.5625 17.589844 46.390625 C 18.289062 45.222656 19.019531 44.070312 19.777344 42.9375 C 20.539062 41.800781 21.324219 40.6875 22.136719 39.589844 C 22.949219 38.496094 23.789062 37.421875 24.65625 36.367188 C 25.523438 35.3125 26.414062 34.28125 27.332031 33.269531 C 28.246094 32.257812 29.1875 31.269531 30.152344 30.308594 C 31.117188 29.34375 32.105469 28.402344 33.117188 27.484375 C 34.128906 26.570312 35.164062 25.679688 36.21875 24.8125 C 37.273438 23.949219 38.351562 23.109375 39.445312 22.296875 C 40.542969 21.484375 41.660156 20.699219 42.792969 19.941406 C 43.929688 19.183594 45.082031 18.457031 46.253906 17.753906 C 47.425781 17.054688 48.613281 16.378906 49.816406 15.738281 C 51.019531 15.09375 52.238281 14.480469 53.472656 13.898438 C 54.707031 13.316406 55.957031 12.761719 57.214844 12.242188 C 58.476562 11.71875 59.75 11.226562 61.035156 10.769531 C 62.320312 10.308594 63.617188 9.882812 64.925781 9.484375 C 66.230469 9.089844 67.546875 8.726562 68.871094 8.394531 C 70.195312 8.0625 71.527344 7.765625 72.867188 7.5 C 74.203125 7.234375 75.550781 7 76.898438 6.800781 C 78.25 6.597656 79.605469 6.433594 80.964844 6.296875 C 82.320312 6.164062 83.683594 6.066406 85.046875 5.996094 C 86.410156 5.929688 87.773438 5.898438 89.140625 5.898438 C 90.503906 5.898438 91.871094 5.929688 93.234375 5.996094 C 94.597656 6.066406 95.957031 6.164062 97.316406 6.296875 C 98.675781 6.433594 100.03125 6.597656 101.378906 6.800781 C 102.730469 7 104.074219 7.234375 105.414062 7.5 C 106.753906 7.765625 108.085938 8.0625 109.410156 8.394531 C 110.734375 8.726562 112.046875 9.089844 113.355469 9.484375 C 114.660156 9.882812 115.957031 10.308594 117.242188 10.769531 C 118.527344 11.226562 119.800781 11.71875 121.0625 12.242188 C 122.324219 12.761719 123.570312 13.316406 124.804688 13.898438 C 126.039062 14.480469 127.257812 15.09375 128.464844 15.738281 C 129.667969 16.378906 130.855469 17.054688 132.027344 17.753906 C 133.195312 18.457031 134.351562 19.183594 135.484375 19.941406 C 136.621094 20.699219 137.734375 21.484375 138.832031 22.296875 C 139.929688 23.109375 141.003906 23.949219 142.058594 24.8125 C 143.117188 25.679688 144.148438 26.570312 145.160156 27.484375 C 146.171875 28.402344 147.160156 29.34375 148.125 30.308594 C 149.089844 31.269531 150.03125 32.257812 150.949219 33.269531 C 151.867188 34.28125 152.757812 35.3125 153.625 36.367188 C 154.488281 37.421875 155.328125 38.496094 156.140625 39.589844 C 156.957031 40.6875 157.742188 41.800781 158.5 42.9375 C 159.257812 44.070312 159.988281 45.222656 160.691406 46.390625 C 161.390625 47.5625 162.066406 48.746094 162.707031 49.949219 C 163.351562 51.152344 163.964844 52.371094 164.550781 53.605469 C 165.132812 54.835938 165.6875 56.085938 166.207031 57.34375 C 166.730469 58.605469 167.222656 59.875 167.683594 61.160156 C 168.140625 62.445312 168.570312 63.738281 168.964844 65.042969 C 169.363281 66.351562 169.726562 67.664062 170.058594 68.988281 C 170.390625 70.308594 170.691406 71.640625 170.957031 72.976562 C 171.222656 74.316406 171.457031 75.660156 171.65625 77.007812 C 171.855469 78.359375 172.023438 79.710938 172.15625 81.066406 C 172.289062 82.425781 172.390625 83.785156 172.457031 85.148438 C 172.523438 86.511719 172.558594 87.871094 172.558594 89.238281 Z M 172.558594 89.238281"/></g><path fill="#FFF" d="M 93.511719 46.539062 C 93.53125 46.507812 93.546875 46.480469 93.5625 46.449219 C 95.203125 43.53125 99.054688 39.273438 104.296875 39.230469 C 107.609375 39.199219 111.570312 40.828125 115.875 45.804688 C 117.035156 45.746094 118.066406 45.855469 118.960938 46.054688 C 121.003906 46.503906 122.707031 47.636719 123.261719 48.035156 C 123.457031 48.089844 123.664062 48.210938 123.871094 48.421875 C 123.925781 48.480469 124.011719 48.578125 124.097656 48.742188 C 124.152344 48.839844 124.300781 49.222656 124.507812 49.851562 C 126.371094 55.515625 135.238281 85.214844 135.238281 85.214844 L 135.292969 85.585938 C 135.519531 108.765625 125.878906 127.640625 114.421875 139.082031 C 106.683594 146.8125 98.085938 151.144531 91.082031 151.289062 C 77.074219 154.570312 61.5625 145.699219 54.074219 136.914062 C 48.65625 130.554688 42.011719 110.734375 43.09375 97.9375 C 43.957031 87.75 43.5 78.507812 44.675781 73.070312 C 45.285156 70.269531 46.382812 68.382812 48.003906 67.53125 C 51.027344 65.9375 53.304688 65.597656 55.144531 66.179688 C 55.449219 66.277344 55.75 66.402344 56.039062 66.554688 C 55.992188 65.265625 56.03125 63.746094 56.285156 62.234375 C 56.761719 59.417969 57.984375 56.660156 60.53125 55.152344 C 62.582031 53.941406 65.992188 52.78125 69.304688 52.964844 C 70.714844 53.042969 72.101562 53.359375 73.375 53.992188 C 74.050781 46.570312 80.316406 44.089844 83.875 43.722656 C 87.40625 43.355469 90.222656 43.957031 92.316406 45.480469 C 92.742188 45.792969 93.144531 46.144531 93.511719 46.539062 Z M 66.433594 95.355469 C 66.347656 94.945312 66.277344 94.648438 66.242188 94.507812 C 61.953125 84.238281 59.851562 76.59375 57.53125 72.191406 C 56.566406 70.363281 55.636719 69.132812 54.335938 68.71875 C 53.015625 68.296875 51.417969 68.742188 49.246094 69.886719 C 48.605469 70.226562 48.179688 70.890625 47.832031 71.769531 C 47.378906 72.898438 47.097656 74.34375 46.894531 76.046875 C 46.242188 81.539062 46.484375 89.507812 45.75 98.164062 C 44.722656 110.3125 50.960938 129.148438 56.105469 135.1875 C 63.089844 143.386719 77.542969 151.804688 90.601562 148.664062 L 90.898438 148.628906 C 97.398438 148.550781 105.332031 144.398438 112.539062 137.199219 C 123.550781 126.199219 132.792969 108.058594 132.628906 85.796875 C 131.886719 83.304688 123.75 56.074219 121.976562 50.683594 C 121.929688 50.550781 121.886719 50.417969 121.847656 50.300781 C 121.328125 49.929688 120.183594 49.050781 118.386719 48.65625 C 116.347656 48.203125 113.496094 48.398438 109.789062 50.503906 C 100.285156 55.898438 88.453125 55.6875 83.011719 54.042969 C 82.734375 53.957031 82.503906 54.132812 82.296875 54.367188 C 81.855469 54.875 81.558594 55.679688 81.429688 56.636719 C 80.683594 62.101562 85.480469 71.417969 105.214844 70.457031 C 105.558594 70.441406 105.894531 70.554688 106.152344 70.78125 C 106.152344 70.78125 114.375 77.71875 108.988281 91 C 108.824219 91.402344 108.476562 91.699219 108.050781 91.796875 C 108.050781 91.796875 86.804688 96.761719 79.925781 119.605469 C 79.714844 120.308594 78.972656 120.710938 78.265625 120.5 C 77.5625 120.285156 77.164062 119.542969 77.375 118.839844 C 83.953125 96.988281 102.886719 90.5 106.753906 89.390625 C 110.265625 80.0625 106.03125 74.53125 104.753906 73.144531 C 102.023438 73.25 99.558594 73.167969 97.335938 72.929688 L 100.023438 86.082031 C 100.339844 87.070312 100.246094 88.226562 99.753906 89.429688 C 99.128906 90.957031 97.84375 92.585938 96.199219 93.90625 C 93.703125 95.914062 90.410156 97.15625 87.5625 96.484375 C 87.003906 96.351562 86.457031 96.152344 85.933594 95.871094 C 85.695312 97.484375 84.800781 99.105469 83.445312 100.457031 C 80.808594 103.085938 76.496094 104.640625 72.703125 103.140625 C 71.648438 102.726562 70.621094 102.074219 69.683594 101.128906 C 69.660156 101.628906 69.617188 102.113281 69.535156 102.570312 C 69.1875 104.574219 68.207031 106.050781 66.542969 106.484375 C 65.65625 106.714844 64.507812 106.65625 63.054688 106.0625 C 61.300781 105.34375 58.964844 103.789062 55.914062 101.007812 C 55.816406 100.917969 55.730469 100.8125 55.660156 100.699219 C 55.660156 100.699219 49.847656 90.867188 47.484375 85.988281 C 47.164062 85.328125 47.441406 84.53125 48.101562 84.210938 C 48.765625 83.890625 49.5625 84.167969 49.882812 84.828125 C 52.035156 89.265625 57.074219 97.84375 57.855469 99.171875 C 60.082031 101.1875 61.867188 102.492188 63.300781 103.238281 C 64.429688 103.828125 65.25 104.070312 65.871094 103.90625 C 66.25 103.808594 66.464844 103.496094 66.628906 103.117188 C 66.90625 102.476562 67.007812 101.664062 67.03125 100.804688 C 67.089844 98.878906 66.726562 96.753906 66.464844 95.507812 C 66.453125 95.457031 66.441406 95.40625 66.433594 95.355469 Z M 82.359375 91.25 C 79.914062 82.382812 74.371094 60.453125 73.582031 57.324219 C 71.964844 55.867188 69.84375 55.496094 67.808594 55.636719 C 65.519531 55.796875 63.3125 56.605469 61.890625 57.445312 C 60.035156 58.542969 59.261719 60.621094 58.914062 62.675781 C 58.402344 65.730469 58.886719 68.8125 58.996094 69.429688 C 59.300781 69.890625 59.597656 70.394531 59.890625 70.949219 C 62.242188 75.410156 64.382812 83.15625 68.738281 93.578125 C 68.761719 93.632812 68.785156 93.695312 68.800781 93.753906 C 68.800781 93.753906 68.898438 94.140625 69.03125 94.777344 C 70.117188 98.070312 71.785156 99.914062 73.683594 100.664062 C 76.476562 101.769531 79.621094 100.507812 81.5625 98.574219 C 82.824219 97.3125 83.636719 95.75 83.242188 94.316406 C 83.09375 93.847656 82.890625 93.144531 82.640625 92.253906 C 82.582031 92.140625 82.527344 92.023438 82.472656 91.902344 C 82.378906 91.691406 82.34375 91.46875 82.359375 91.25 Z M 93.566406 52.359375 C 93.046875 50.214844 92.125 48.640625 90.746094 47.632812 C 89.117188 46.449219 86.902344 46.085938 84.152344 46.371094 C 81.128906 46.683594 75.617188 48.980469 76.003906 56.09375 C 76.03125 56.160156 76.054688 56.230469 76.070312 56.300781 C 76.070312 56.300781 82.660156 82.449219 85.128906 91.273438 C 85.71875 92.390625 86.441406 93.136719 87.269531 93.5625 C 89.550781 94.730469 92.402344 93.539062 94.53125 91.832031 C 95.789062 90.816406 96.808594 89.59375 97.289062 88.421875 C 97.515625 87.859375 97.636719 87.324219 97.476562 86.871094 C 97.457031 86.8125 97.441406 86.753906 97.425781 86.695312 L 94.53125 72.523438 C 81.179688 70.058594 78.09375 61.363281 78.789062 56.277344 C 79.046875 54.367188 79.851562 52.878906 80.828125 52.097656 C 81.695312 51.402344 82.71875 51.171875 83.78125 51.492188 C 86.074219 52.1875 89.589844 52.59375 93.566406 52.359375 Z M 112.757812 46.339844 C 109.296875 42.769531 106.226562 41.644531 103.589844 41.9375 C 100.667969 42.257812 98.398438 44.277344 96.949219 46.160156 C 96.265625 47.046875 95.765625 47.90625 95.472656 48.574219 C 95.378906 48.789062 95.296875 49.046875 95.265625 49.152344 C 95.675781 50.027344 96.003906 51.011719 96.246094 52.109375 C 100.273438 51.59375 104.582031 50.394531 108.46875 48.1875 C 110.019531 47.308594 111.449219 46.714844 112.757812 46.339844 Z M 124.140625 49.839844 C 124.144531 49.828125 124.148438 49.8125 124.152344 49.800781 C 124.160156 49.789062 124.164062 49.773438 124.167969 49.761719 Z M 122.375 48.121094 C 122.195312 48.183594 122.046875 48.28125 121.921875 48.417969 C 121.800781 48.550781 121.703125 48.722656 121.636719 48.929688 C 121.792969 48.449219 122.105469 48.234375 122.375 48.121094 Z M 122.375 48.121094" fill-rule="evenodd"/></svg>