<svg xmlns="http://www.w3.org/2000/svg" width="180" viewBox="0 0 180 180" height="180" version="1.0"><defs><clipPath id="a"><path d="M 5 5.902344 L 172.640625 5.902344 L 172.640625 173 L 5 173 Z M 5 5.902344"/></clipPath></defs><g clip-path="url(#a)"><path fill="#7FACFF" d="M 172.503906 89.261719 C 172.503906 90.625 172.46875 91.988281 172.402344 93.351562 C 172.335938 94.710938 172.234375 96.070312 172.101562 97.429688 C 171.96875 98.785156 171.800781 100.140625 171.601562 101.488281 C 171.398438 102.839844 171.167969 104.183594 170.902344 105.519531 C 170.632812 106.855469 170.335938 108.1875 170.003906 109.511719 C 169.671875 110.832031 169.308594 112.148438 168.910156 113.453125 C 168.515625 114.757812 168.085938 116.054688 167.628906 117.335938 C 167.167969 118.621094 166.675781 119.894531 166.152344 121.152344 C 165.632812 122.414062 165.078125 123.660156 164.496094 124.894531 C 163.910156 126.125 163.296875 127.34375 162.652344 128.546875 C 162.011719 129.75 161.335938 130.9375 160.636719 132.105469 C 159.933594 133.277344 159.203125 134.425781 158.445312 135.5625 C 157.6875 136.695312 156.902344 137.8125 156.085938 138.90625 C 155.273438 140 154.433594 141.078125 153.566406 142.132812 C 152.703125 143.183594 151.8125 144.21875 150.894531 145.226562 C 149.976562 146.238281 149.035156 147.226562 148.070312 148.191406 C 147.105469 149.15625 146.117188 150.09375 145.105469 151.011719 C 144.09375 151.925781 143.058594 152.816406 142.003906 153.683594 C 140.949219 154.546875 139.875 155.386719 138.777344 156.199219 C 137.679688 157.011719 136.566406 157.796875 135.429688 158.554688 C 134.292969 159.3125 133.140625 160.042969 131.96875 160.742188 C 130.800781 161.445312 129.613281 162.117188 128.40625 162.761719 C 127.203125 163.402344 125.984375 164.015625 124.75 164.597656 C 123.515625 165.183594 122.269531 165.734375 121.007812 166.257812 C 119.746094 166.777344 118.472656 167.269531 117.1875 167.730469 C 115.902344 168.1875 114.605469 168.617188 113.300781 169.011719 C 111.992188 169.40625 110.679688 169.769531 109.355469 170.101562 C 108.03125 170.433594 106.699219 170.734375 105.359375 171 C 104.019531 171.265625 102.675781 171.5 101.324219 171.699219 C 99.972656 171.898438 98.621094 172.066406 97.261719 172.199219 C 95.902344 172.332031 94.542969 172.433594 93.175781 172.5 C 91.8125 172.566406 90.449219 172.601562 89.085938 172.601562 C 87.71875 172.601562 86.355469 172.566406 84.992188 172.5 C 83.628906 172.433594 82.265625 172.332031 80.90625 172.199219 C 79.550781 172.066406 78.195312 171.898438 76.84375 171.699219 C 75.492188 171.5 74.148438 171.265625 72.808594 171 C 71.472656 170.734375 70.140625 170.433594 68.816406 170.101562 C 67.492188 169.769531 66.175781 169.40625 64.871094 169.011719 C 63.5625 168.617188 62.265625 168.1875 60.980469 167.730469 C 59.695312 167.269531 58.421875 166.777344 57.160156 166.257812 C 55.898438 165.734375 54.652344 165.183594 53.417969 164.597656 C 52.183594 164.015625 50.964844 163.402344 49.761719 162.761719 C 48.558594 162.117188 47.371094 161.445312 46.199219 160.742188 C 45.027344 160.042969 43.875 159.3125 42.738281 158.554688 C 41.605469 157.796875 40.488281 157.011719 39.390625 156.199219 C 38.296875 155.386719 37.21875 154.546875 36.164062 153.683594 C 35.109375 152.816406 34.074219 151.925781 33.0625 151.011719 C 32.050781 150.09375 31.0625 149.15625 30.097656 148.191406 C 29.132812 147.226562 28.191406 146.238281 27.273438 145.226562 C 26.359375 144.21875 25.46875 143.183594 24.601562 142.132812 C 23.734375 141.078125 22.894531 140 22.082031 138.90625 C 21.269531 137.8125 20.484375 136.695312 19.722656 135.5625 C 18.964844 134.425781 18.234375 133.277344 17.535156 132.105469 C 16.832031 130.9375 16.160156 129.75 15.515625 128.546875 C 14.871094 127.34375 14.257812 126.125 13.675781 124.894531 C 13.089844 123.660156 12.539062 122.414062 12.015625 121.152344 C 11.492188 119.894531 11 118.621094 10.542969 117.335938 C 10.082031 116.054688 9.652344 114.757812 9.257812 113.453125 C 8.859375 112.148438 8.496094 110.832031 8.164062 109.511719 C 7.832031 108.1875 7.535156 106.855469 7.269531 105.519531 C 7.003906 104.183594 6.769531 102.839844 6.566406 101.488281 C 6.367188 100.140625 6.199219 98.785156 6.066406 97.429688 C 5.933594 96.070312 5.832031 94.710938 5.765625 93.351562 C 5.699219 91.988281 5.664062 90.625 5.664062 89.261719 C 5.664062 87.898438 5.699219 86.535156 5.765625 85.171875 C 5.832031 83.808594 5.933594 82.449219 6.066406 81.09375 C 6.199219 79.734375 6.367188 78.382812 6.566406 77.03125 C 6.769531 75.683594 7.003906 74.339844 7.269531 73.003906 C 7.535156 71.664062 7.832031 70.332031 8.164062 69.011719 C 8.496094 67.6875 8.859375 66.375 9.257812 65.070312 C 9.652344 63.761719 10.082031 62.46875 10.542969 61.183594 C 11 59.898438 11.492188 58.628906 12.015625 57.367188 C 12.539062 56.109375 13.089844 54.863281 13.675781 53.628906 C 14.257812 52.394531 14.871094 51.175781 15.515625 49.976562 C 16.160156 48.773438 16.832031 47.585938 17.535156 46.414062 C 18.234375 45.246094 18.964844 44.09375 19.722656 42.960938 C 20.484375 41.824219 21.269531 40.710938 22.082031 39.617188 C 22.894531 38.519531 23.734375 37.445312 24.601562 36.390625 C 25.46875 35.335938 26.359375 34.304688 27.273438 33.292969 C 28.191406 32.28125 29.132812 31.296875 30.097656 30.332031 C 31.0625 29.367188 32.050781 28.425781 33.0625 27.511719 C 34.074219 26.59375 35.109375 25.703125 36.164062 24.839844 C 37.21875 23.972656 38.296875 23.132812 39.390625 22.320312 C 40.488281 21.507812 41.605469 20.722656 42.738281 19.964844 C 43.875 19.207031 45.027344 18.480469 46.199219 17.777344 C 47.371094 17.078125 48.558594 16.40625 49.761719 15.761719 C 50.964844 15.117188 52.183594 14.503906 53.417969 13.921875 C 54.652344 13.339844 55.898438 12.785156 57.160156 12.265625 C 58.421875 11.742188 59.695312 11.253906 60.980469 10.792969 C 62.265625 10.332031 63.5625 9.90625 64.871094 9.507812 C 66.175781 9.113281 67.492188 8.75 68.816406 8.417969 C 70.140625 8.085938 71.472656 7.789062 72.808594 7.523438 C 74.148438 7.257812 75.492188 7.023438 76.84375 6.824219 C 78.195312 6.621094 79.550781 6.457031 80.90625 6.324219 C 82.265625 6.1875 83.628906 6.089844 84.992188 6.023438 C 86.355469 5.953125 87.71875 5.921875 89.085938 5.921875 C 90.449219 5.921875 91.8125 5.953125 93.175781 6.023438 C 94.542969 6.089844 95.902344 6.1875 97.261719 6.324219 C 98.621094 6.457031 99.972656 6.621094 101.324219 6.824219 C 102.675781 7.023438 104.019531 7.257812 105.359375 7.523438 C 106.699219 7.789062 108.03125 8.085938 109.355469 8.417969 C 110.679688 8.75 111.992188 9.113281 113.300781 9.507812 C 114.605469 9.90625 115.902344 10.332031 117.1875 10.792969 C 118.472656 11.253906 119.746094 11.742188 121.007812 12.265625 C 122.269531 12.785156 123.515625 13.339844 124.75 13.921875 C 125.984375 14.503906 127.203125 15.117188 128.40625 15.761719 C 129.613281 16.40625 130.800781 17.078125 131.96875 17.777344 C 133.140625 18.480469 134.292969 19.207031 135.429688 19.964844 C 136.566406 20.722656 137.679688 21.507812 138.777344 22.320312 C 139.875 23.132812 140.949219 23.972656 142.003906 24.839844 C 143.058594 25.703125 144.09375 26.59375 145.105469 27.511719 C 146.117188 28.425781 147.105469 29.367188 148.070312 30.332031 C 149.035156 31.296875 149.976562 32.28125 150.894531 33.292969 C 151.8125 34.304688 152.703125 35.335938 153.566406 36.390625 C 154.433594 37.445312 155.273438 38.519531 156.085938 39.617188 C 156.902344 40.710938 157.6875 41.824219 158.445312 42.960938 C 159.203125 44.09375 159.933594 45.246094 160.636719 46.414062 C 161.335938 47.585938 162.011719 48.773438 162.652344 49.976562 C 163.296875 51.175781 163.910156 52.394531 164.496094 53.628906 C 165.078125 54.863281 165.632812 56.109375 166.152344 57.367188 C 166.675781 58.628906 167.167969 59.898438 167.628906 61.183594 C 168.085938 62.46875 168.515625 63.761719 168.910156 65.070312 C 169.308594 66.375 169.671875 67.6875 170.003906 69.011719 C 170.335938 70.332031 170.632812 71.664062 170.902344 73.003906 C 171.167969 74.339844 171.398438 75.683594 171.601562 77.03125 C 171.800781 78.382812 171.96875 79.734375 172.101562 81.09375 C 172.234375 82.449219 172.335938 83.808594 172.402344 85.171875 C 172.46875 86.535156 172.503906 87.898438 172.503906 89.261719 Z M 172.503906 89.261719"/></g><path fill="#FFF" d="M 60.226562 93.820312 C 56.945312 102.265625 57.558594 112.09375 59.4375 120.851562 C 62.292969 134.125 68.097656 144.960938 68.097656 144.960938 C 68.339844 145.410156 68.167969 145.972656 67.71875 146.210938 C 67.269531 146.449219 66.710938 146.28125 66.472656 145.832031 C 66.472656 145.832031 60.542969 134.78125 57.632812 121.238281 C 55.675781 112.128906 55.097656 101.90625 58.515625 93.125 C 58.523438 93.113281 58.527344 93.097656 58.535156 93.085938 C 58.535156 93.085938 59.792969 90.273438 62.769531 89.390625 C 64.023438 89.019531 65.589844 88.976562 67.496094 89.664062 C 67.636719 89.714844 67.757812 89.796875 67.859375 89.902344 C 67.953125 90.003906 68.3125 90.585938 68.820312 91.539062 C 70.605469 94.898438 74.753906 103.34375 76.910156 109.5 C 77.753906 111.910156 78.289062 113.992188 78.308594 115.324219 C 78.324219 116.132812 78.136719 116.734375 77.847656 117.113281 C 77.816406 117.152344 77.789062 117.1875 77.753906 117.21875 C 77.492188 117.554688 76.910156 118.164062 75.929688 118.398438 C 75.21875 118.566406 74.277344 118.554688 73.078125 117.996094 C 70.640625 116.863281 66.796875 113.1875 61.257812 103.089844 C 61.011719 102.640625 61.175781 102.082031 61.621094 101.835938 C 62.070312 101.59375 62.632812 101.757812 62.875 102.203125 C 68.085938 111.695312 71.5625 115.257812 73.855469 116.324219 C 74.550781 116.644531 75.085938 116.703125 75.496094 116.605469 C 76.007812 116.480469 76.269531 116.128906 76.34375 116.023438 C 76.367188 115.988281 76.390625 115.957031 76.414062 115.925781 C 76.433594 115.871094 76.4375 115.800781 76.449219 115.726562 C 76.476562 115.484375 76.46875 115.1875 76.429688 114.851562 C 76.300781 113.652344 75.828125 111.992188 75.167969 110.109375 C 73.042969 104.039062 68.949219 95.714844 67.191406 92.40625 C 66.949219 91.949219 66.710938 91.53125 66.574219 91.300781 C 65.265625 90.878906 64.179688 90.898438 63.296875 91.160156 C 61.25 91.765625 60.320312 93.625 60.226562 93.820312 Z M 60.226562 93.820312" fill-rule="evenodd"/><path fill="#FFF" d="M 79.527344 83.515625 C 76.628906 82.441406 74.453125 82.566406 72.828125 83.34375 C 71.28125 84.085938 70.253906 85.394531 69.558594 86.6875 C 68.472656 88.699219 68.199219 90.695312 68.199219 90.695312 C 68.132812 91.203125 67.667969 91.554688 67.160156 91.488281 C 66.65625 91.417969 66.300781 90.953125 66.371094 90.449219 C 66.371094 90.449219 66.679688 88.140625 67.933594 85.8125 C 68.796875 84.207031 70.105469 82.605469 72.03125 81.683594 C 74.066406 80.707031 76.8125 80.464844 80.503906 81.914062 C 80.695312 81.988281 80.855469 82.125 80.960938 82.300781 C 80.960938 82.300781 82.894531 85.550781 84.054688 89.804688 C 84.191406 90.296875 83.898438 90.804688 83.410156 90.9375 C 82.917969 91.070312 82.410156 90.78125 82.273438 90.289062 C 81.375 87 79.988281 84.347656 79.527344 83.515625 Z M 79.527344 83.515625" fill-rule="evenodd"/><path fill="#FFF" d="M 76.148438 113.324219 C 76.03125 112.828125 76.335938 112.332031 76.832031 112.210938 C 77.324219 112.09375 77.824219 112.398438 77.945312 112.890625 C 77.945312 112.890625 78.75 116.273438 80.738281 118.5625 C 81.929688 119.9375 83.582031 120.910156 85.808594 120.230469 C 86.210938 120.109375 86.503906 119.796875 86.742188 119.378906 C 87.0625 118.820312 87.269531 118.089844 87.402344 117.25 C 88.085938 112.910156 86.699219 105.84375 84.984375 102.367188 C 84.761719 101.914062 84.949219 101.359375 85.40625 101.132812 C 85.863281 100.910156 86.417969 101.097656 86.640625 101.554688 C 88.480469 105.285156 89.960938 112.875 89.226562 117.539062 C 88.855469 119.898438 87.855469 121.53125 86.347656 121.992188 C 83.28125 122.929688 80.984375 121.664062 79.34375 119.773438 C 77.082031 117.164062 76.148438 113.324219 76.148438 113.324219 Z M 76.148438 113.324219 Z M 76.148438 113.324219" fill-rule="evenodd"/><path fill="#FFF" d="M 86.425781 28.613281 C 85.121094 25.457031 83.597656 24.320312 82.078125 24.488281 C 80.957031 24.613281 79.9375 25.421875 79.1875 26.40625 C 78.417969 27.417969 77.921875 28.636719 77.96875 29.648438 C 77.96875 29.652344 77.96875 29.65625 77.96875 29.664062 L 79.550781 81.785156 C 79.566406 82.292969 79.167969 82.71875 78.65625 82.734375 C 78.148438 82.75 77.722656 82.347656 77.707031 81.839844 C 77.707031 81.839844 76.125 29.71875 76.125 29.734375 C 76.0625 28.355469 76.671875 26.667969 77.714844 25.292969 C 78.78125 23.890625 80.28125 22.835938 81.875 22.65625 C 83.960938 22.421875 86.386719 23.628906 88.175781 28.007812 C 88.199219 28.070312 88.21875 28.136719 88.230469 28.203125 C 88.230469 28.203125 91.683594 48.40625 90.867188 63.90625 C 90.902344 64.644531 91.335938 73.890625 91.136719 77.75 C 91.097656 78.625 91.1875 79.375 91.386719 79.945312 C 91.519531 80.320312 91.660156 80.613281 91.890625 80.722656 C 92.023438 80.78125 92.152344 80.683594 92.3125 80.554688 C 92.71875 80.226562 93.121094 79.628906 93.523438 78.738281 C 93.808594 77.484375 96.988281 63.582031 98.375 58.957031 C 98.597656 57.820312 103.226562 34.410156 103.335938 34.0625 C 104.316406 30.933594 107.988281 29 111.035156 30.121094 C 112.988281 30.839844 114.773438 32.816406 115.253906 36.710938 C 115.265625 36.789062 115.265625 36.867188 115.253906 36.945312 C 115.253906 36.945312 110.726562 71.332031 108 87.203125 C 108.066406 90.566406 110 93.019531 112.351562 95.25 C 114.933594 97.703125 118.023438 99.886719 120.109375 102.492188 C 120.121094 102.507812 120.132812 102.523438 120.144531 102.539062 C 120.144531 102.539062 123.34375 107.105469 121.578125 111.984375 C 121.570312 112.007812 121.5625 112.027344 121.550781 112.046875 C 121.550781 112.046875 115.949219 124.546875 111.847656 138.667969 C 110.839844 142.011719 110.671875 145.074219 106.796875 149.300781 C 105.4375 150.789062 100.894531 153.429688 95.03125 154.867188 C 86.300781 157.007812 74.683594 156.539062 66.550781 145.960938 C 66.242188 145.554688 66.320312 144.976562 66.722656 144.667969 C 67.125 144.355469 67.707031 144.433594 68.015625 144.835938 C 75.601562 154.703125 86.449219 155.074219 94.589844 153.074219 C 99.972656 151.753906 104.1875 149.421875 105.4375 148.058594 C 109.039062 144.121094 109.140625 141.25 110.074219 138.148438 C 114.082031 124.355469 119.511719 112.09375 119.851562 111.332031 C 121.222656 107.503906 118.855469 103.921875 118.648438 103.621094 C 116.613281 101.085938 113.59375 98.976562 111.078125 96.589844 C 108.34375 93.992188 106.195312 91.074219 106.152344 87.144531 L 106.167969 86.976562 C 108.792969 71.707031 113.117188 39.039062 113.40625 36.824219 C 113.027344 33.949219 111.855469 32.386719 110.394531 31.851562 C 108.292969 31.078125 105.773438 32.449219 105.097656 34.613281 C 104.984375 34.964844 100.175781 59.355469 100.175781 59.355469 L 100.15625 59.441406 C 98.722656 64.214844 95.304688 79.238281 95.304688 79.238281 L 95.246094 79.410156 C 94.542969 81 93.742188 81.890625 93.042969 82.28125 C 92.355469 82.664062 91.695312 82.664062 91.113281 82.394531 C 90.621094 82.164062 90.164062 81.707031 89.835938 81.015625 C 89.457031 80.21875 89.230469 79.066406 89.289062 77.664062 C 89.5 73.6875 89.023438 63.949219 89.023438 63.949219 L 89.023438 63.855469 C 89.800781 49.15625 86.683594 30.148438 86.425781 28.613281 Z M 86.425781 28.613281" fill-rule="evenodd"/><path fill="#FFF" d="M 89.742188 87.492188 C 95.582031 81.539062 99.542969 82.558594 99.542969 82.558594 C 99.613281 82.574219 99.679688 82.597656 99.746094 82.628906 C 104.652344 85.011719 109.160156 91.46875 109.160156 91.46875 C 109.449219 91.886719 109.347656 92.460938 108.925781 92.75 C 108.507812 93.039062 107.933594 92.9375 107.640625 92.519531 C 107.640625 92.519531 103.5625 86.601562 99.058594 84.347656 C 98.53125 84.300781 95.460938 84.246094 90.949219 88.894531 C 90.875 88.96875 90.789062 89.035156 90.691406 89.082031 C 90.691406 89.082031 82.992188 92.828125 77.117188 93.269531 C 77.054688 93.273438 76.996094 93.273438 76.9375 93.265625 C 76.914062 93.273438 76.675781 93.351562 76.539062 93.4375 C 76.132812 93.691406 75.71875 94.140625 75.519531 94.703125 C 75.269531 95.402344 75.402344 96.261719 76.242188 97.148438 C 77.320312 98.289062 79.390625 99.40625 82.960938 100.375 C 83.734375 100.488281 92.132812 101.648438 95.871094 100.234375 C 96.128906 100.136719 96.417969 100.160156 96.65625 100.296875 C 96.898438 100.4375 97.0625 100.675781 97.109375 100.945312 C 97.109375 100.945312 98.421875 108.664062 107.261719 112.804688 C 107.722656 113.023438 107.921875 113.570312 107.703125 114.03125 C 107.488281 114.492188 106.9375 114.691406 106.476562 114.476562 C 98.714844 110.835938 96.230469 104.671875 95.53125 102.257812 C 90.972656 103.359375 82.640625 102.195312 82.640625 102.195312 L 82.53125 102.171875 C 72.417969 99.441406 72.851562 95.015625 74.382812 92.96875 C 74.832031 92.367188 75.402344 91.921875 75.921875 91.671875 C 76.332031 91.480469 76.726562 91.40625 77.046875 91.421875 C 82.171875 91.015625 88.710938 87.984375 89.742188 87.492188 Z M 89.742188 87.492188" fill-rule="evenodd"/></svg>